<?xml version="1.0" standalone="no"?>
<!DOCTYPE svg PUBLIC "-//W3C//DTD SVG 20010904//EN"
 "http://www.w3.org/TR/2001/REC-SVG-20010904/DTD/svg10.dtd">
<svg version="1.0" xmlns="http://www.w3.org/2000/svg"
 width="400.000000pt" height="400.000000pt" viewBox="0 0 400.000000 400.000000"
 preserveAspectRatio="xMidYMid meet">
<metadata>
Created by potrace 1.14, written by Peter Selinger 2001-2017
</metadata>
<g transform="translate(0.000000,400.000000) scale(0.100000,-0.100000)"
fill="#000000" stroke="none">
<path d="M0 2000 l0 -2000 1496 0 c1193 0 1494 3 1488 12 -6 10 -4 11 7 1 13
-13 209 -19 209 -7 0 23 -25 43 -61 49 -29 5 -38 10 -28 16 11 7 10 9 -3 9
-10 0 -18 -4 -18 -9 0 -6 -9 -8 -20 -5 -11 2 -28 6 -38 8 -24 5 -38 -4 -45
-29 -3 -11 -5 -6 -4 13 1 21 6 32 17 33 8 0 23 2 33 4 9 2 15 0 12 -5 -3 -4 2
-10 10 -14 8 -3 17 -1 20 4 9 15 55 12 55 -2 0 -10 3 -9 9 1 11 17 119 11 130
-8 5 -7 23 -15 41 -17 20 -4 30 -2 26 5 -7 10 66 8 169 -4 77 -10 87 -14 80
-36 -6 -18 1 -19 205 -19 l210 0 0 325 c-1 294 -3 326 -18 336 -16 10 -16 10
1 5 16 -5 17 79 17 1664 l0 1670 -2000 0 -2000 0 0 -2000z m2268 1121 c7 -1
11 -5 8 -10 -4 -5 3 -7 13 -4 21 5 105 -39 94 -50 -3 -4 1 -7 11 -7 9 0 14 -4
11 -10 -3 -5 -2 -10 4 -10 6 0 8 -6 5 -14 -3 -7 1 -20 9 -27 8 -8 12 -24 11
-36 -2 -12 1 -25 6 -28 6 -4 7 -11 4 -17 -4 -6 3 -18 15 -27 12 -9 22 -29 24
-46 1 -17 9 -36 17 -43 13 -10 13 -12 0 -10 -8 2 -15 -3 -16 -9 -1 -7 -2 -18
-3 -24 0 -5 -5 -8 -11 -4 -5 3 -6 13 -3 22 4 11 3 14 -6 9 -6 -4 -10 -15 -9
-24 2 -10 -3 -16 -10 -14 -8 1 -11 -2 -7 -8 3 -6 11 -8 16 -5 5 3 6 -1 3 -9
-5 -14 -54 -16 -405 -16 -259 0 -399 4 -399 10 0 6 6 10 13 11 6 1 1 4 -12 8
-13 3 -29 15 -35 26 -6 11 -14 22 -18 25 -4 3 -12 18 -17 33 -10 27 -10 28 11
21 20 -6 21 -5 9 10 -12 14 -11 16 10 16 19 0 21 2 9 10 -13 9 -13 10 0 11 10
0 11 2 2 6 -18 7 -4 23 21 23 12 1 33 8 47 16 18 11 20 14 5 10 -17 -5 -17 -4
4 12 13 11 21 24 17 31 -4 6 -1 11 9 11 9 0 13 4 10 10 -3 6 1 7 9 4 9 -3 16
-1 16 4 0 6 9 14 20 17 11 4 18 10 15 15 -3 5 3 7 15 5 11 -2 22 0 25 6 4 5
15 9 26 9 11 0 17 4 14 10 -4 7 2 7 19 0 21 -8 24 -6 21 10 -3 13 1 17 11 13
7 -3 11 -9 8 -14 -3 -5 2 -6 10 -3 9 3 16 10 16 15 0 4 6 6 13 3 8 -3 27 1 43
7 16 7 42 13 57 15 16 1 31 5 34 7 3 4 100 3 161 -2z m-1122 -628 c-10 -10
-19 5 -10 18 6 11 8 11 12 0 2 -7 1 -15 -2 -18z m870 0 c-10 -10 -19 5 -10 18
6 11 8 11 12 0 2 -7 1 -15 -2 -18z m30 0 c-10 -10 -19 5 -10 18 6 11 8 11 12
0 2 -7 1 -15 -2 -18z m184 11 c0 -8 -5 -12 -10 -9 -6 4 -8 11 -5 16 9 14 15
11 15 -7z m30 0 c0 -8 -5 -12 -10 -9 -6 4 -8 11 -5 16 9 14 15 11 15 -7z m30
0 c0 -8 -5 -12 -10 -9 -6 4 -8 11 -5 16 9 14 15 11 15 -7z m180 0 c0 -8 -5
-12 -10 -9 -6 4 -8 11 -5 16 9 14 15 11 15 -7z m150 -3 c0 -4 -9 -7 -20 -7
-11 0 -20 6 -20 12 0 7 8 10 20 7 11 -3 20 -8 20 -12z m30 3 c0 -8 -5 -12 -10
-9 -6 4 -8 11 -5 16 9 14 15 11 15 -7z m327 -6 c-3 -8 -6 -5 -6 6 -1 11 2 17
5 13 3 -3 4 -12 1 -19z m-1857 2 c0 -5 -4 -10 -10 -10 -5 0 -10 5 -10 10 0 6
5 10 10 10 6 0 10 -4 10 -10z m60 0 c0 -5 -4 -10 -10 -10 -5 0 -10 5 -10 10 0
6 5 10 10 10 6 0 10 -4 10 -10z m30 0 c0 -5 -4 -10 -10 -10 -5 0 -10 5 -10 10
0 6 5 10 10 10 6 0 10 -4 10 -10z m120 0 c0 -5 -4 -10 -10 -10 -5 0 -10 5 -10
10 0 6 5 10 10 10 6 0 10 -4 10 -10z m360 0 c0 -5 -4 -10 -10 -10 -5 0 -10 5
-10 10 0 6 5 10 10 10 6 0 10 -4 10 -10z m30 0 c0 -5 -4 -10 -10 -10 -5 0 -10
5 -10 10 0 6 5 10 10 10 6 0 10 -4 10 -10z m30 0 c0 -5 -4 -10 -10 -10 -5 0
-10 5 -10 10 0 6 5 10 10 10 6 0 10 -4 10 -10z m30 0 c0 -5 -4 -10 -10 -10 -5
0 -10 5 -10 10 0 6 5 10 10 10 6 0 10 -4 10 -10z m300 0 c0 -5 -4 -10 -10 -10
-5 0 -10 5 -10 10 0 6 5 10 10 10 6 0 10 -4 10 -10z m30 0 c0 -5 -2 -10 -4
-10 -3 0 -8 5 -11 10 -3 6 -1 10 4 10 6 0 11 -4 11 -10z m90 0 c0 -5 -4 -10
-10 -10 -5 0 -10 5 -10 10 0 6 5 10 10 10 6 0 10 -4 10 -10z m210 0 c0 -5 -2
-10 -4 -10 -3 0 -8 5 -11 10 -3 6 -1 10 4 10 6 0 11 -4 11 -10z m30 -90 c0
-55 -3 -100 -7 -100 -5 0 -8 45 -8 100 0 55 3 100 8 100 4 0 7 -45 7 -100z
m330 90 c0 -5 -2 -10 -4 -10 -3 0 -8 5 -11 10 -3 6 -1 10 4 10 6 0 11 -4 11
-10z m120 -90 c0 -55 -3 -100 -8 -100 -4 0 -7 45 -7 100 0 55 3 100 8 100 4 0
7 -45 7 -100z m120 90 c0 -5 -4 -10 -10 -10 -5 0 -10 5 -10 10 0 6 5 10 10 10
6 0 10 -4 10 -10z m30 0 c0 -5 -2 -10 -4 -10 -3 0 -8 5 -11 10 -3 6 -1 10 4
10 6 0 11 -4 11 -10z m30 0 c0 -5 -4 -10 -10 -10 -5 0 -10 5 -10 10 0 6 5 10
10 10 6 0 10 -4 10 -10z m25 0 c3 -5 1 -10 -4 -10 -6 0 -11 5 -11 10 0 6 2 10
4 10 3 0 8 -4 11 -10z m125 0 c0 -5 -4 -10 -10 -10 -5 0 -10 5 -10 10 0 6 5
10 10 10 6 0 10 -4 10 -10z m-2338 -69 c-4 -10 -1 -13 11 -8 11 4 17 1 17 -8
0 -9 -6 -12 -15 -9 -11 5 -14 -4 -13 -40 0 -26 -2 -50 -6 -53 -3 -4 -6 34 -5
83 0 54 3 81 8 69 5 -11 6 -26 3 -34z m238 -36 c0 -47 -4 -85 -8 -85 -5 0 -8
38 -8 85 0 47 3 85 8 85 4 0 8 -38 8 -85z m210 75 c0 -5 -4 -10 -10 -10 -5 0
-10 5 -10 10 0 6 5 10 10 10 6 0 10 -4 10 -10z m330 0 c0 -5 -4 -10 -10 -10
-5 0 -10 5 -10 10 0 6 5 10 10 10 6 0 10 -4 10 -10z m150 -60 c0 -38 -4 -70
-8 -70 -5 0 -9 32 -9 70 0 39 4 70 9 70 4 0 8 -31 8 -70z m177 8 c-2 -13 -4
-3 -4 22 0 25 2 35 4 23 2 -13 2 -33 0 -45z m213 -23 c0 -47 -4 -85 -8 -85 -5
0 -8 38 -8 85 0 47 3 85 8 85 4 0 8 -38 8 -85z m117 48 c-3 -10 -5 -4 -5 12 0
17 2 24 5 18 2 -7 2 -21 0 -30z m240 -96 c-2 -23 -3 -1 -3 48 0 50 1 68 3 42
2 -26 2 -67 0 -90z m213 108 c0 -14 -2 -25 -4 -25 -2 0 -6 11 -8 25 -3 14 -1
25 3 25 5 0 9 -11 9 -25z m27 -12 c-3 -10 -5 -4 -5 12 0 17 2 24 5 18 2 -7 2
-21 0 -30z m180 -96 c-2 -23 -3 -1 -3 48 0 50 1 68 3 42 2 -26 2 -67 0 -90z
m240 93 c0 -22 -4 -40 -9 -40 -4 0 -8 18 -8 40 0 22 4 40 8 40 5 0 9 -18 9
-40z m-2217 -16 c0 -14 -4 -23 -9 -20 -5 3 -7 15 -4 26 7 28 13 25 13 -6z
m330 16 c0 -5 -4 -10 -10 -10 -5 0 -10 5 -10 10 0 6 5 10 10 10 6 0 10 -4 10
-10z m330 0 c0 -5 -2 -10 -4 -10 -3 0 -8 5 -11 10 -3 6 -1 10 4 10 6 0 11 -4
11 -10z m-690 -25 c0 -7 -10 -11 -22 -9 -30 3 -30 3 -24 12 7 12 46 9 46 -3z
m176 -12 c-10 -10 -19 5 -10 18 6 11 8 11 12 0 2 -7 1 -15 -2 -18z m1144 -20
c0 -51 -11 -54 -12 -4 -1 32 -18 45 -18 14 0 -15 -2 -16 -10 -3 -14 22 -12 28
13 33 12 2 23 5 25 6 1 0 2 -20 2 -46z m-1110 27 c0 -5 -4 -10 -10 -10 -5 0
-10 5 -10 10 0 6 5 10 10 10 6 0 10 -4 10 -10z m30 0 c0 -5 -4 -10 -10 -10 -5
0 -10 5 -10 10 0 6 5 10 10 10 6 0 10 -4 10 -10z m120 0 c0 -5 -4 -10 -10 -10
-5 0 -10 5 -10 10 0 6 5 10 10 10 6 0 10 -4 10 -10z m330 0 c0 -5 -4 -10 -10
-10 -5 0 -10 5 -10 10 0 6 5 10 10 10 6 0 10 -4 10 -10z m360 0 c0 -5 -4 -10
-10 -10 -5 0 -10 5 -10 10 0 6 5 10 10 10 6 0 10 -4 10 -10z m30 0 c0 -5 -4
-10 -10 -10 -5 0 -10 5 -10 10 0 6 5 10 10 10 6 0 10 -4 10 -10z m30 0 c0 -5
-4 -10 -10 -10 -5 0 -10 5 -10 10 0 6 5 10 10 10 6 0 10 -4 10 -10z m30 0 c0
-5 -4 -10 -10 -10 -5 0 -10 5 -10 10 0 6 5 10 10 10 6 0 10 -4 10 -10z m120 0
c0 -5 -4 -10 -10 -10 -5 0 -10 5 -10 10 0 6 5 10 10 10 6 0 10 -4 10 -10z
m390 0 c0 -5 -4 -10 -10 -10 -5 0 -10 5 -10 10 0 6 5 10 10 10 6 0 10 -4 10
-10z m30 0 c0 -5 -4 -10 -10 -10 -5 0 -10 5 -10 10 0 6 5 10 10 10 6 0 10 -4
10 -10z m120 0 c0 -5 -2 -10 -4 -10 -3 0 -8 5 -11 10 -3 6 -1 10 4 10 6 0 11
-4 11 -10z m60 -15 c0 -14 -2 -25 -4 -25 -2 0 -6 11 -8 25 -3 14 -1 25 3 25 5
0 9 -11 9 -25z m-1170 -15 c0 -5 -2 -10 -4 -10 -3 0 -8 5 -11 10 -3 6 -1 10 4
10 6 0 11 -4 11 -10z m327 -27 c-3 -10 -5 -4 -5 12 0 17 2 24 5 18 2 -7 2 -21
0 -30z m-657 -18 c0 -14 -4 -25 -9 -25 -5 0 -8 11 -8 25 0 14 3 25 8 25 5 0 9
-11 9 -25z m1440 15 c0 -5 -2 -10 -4 -10 -3 0 -8 5 -11 10 -3 6 -1 10 4 10 6
0 11 -4 11 -10z m89 -17 c0 -25 -1 -26 -9 -8 -12 27 -12 35 0 35 6 0 10 -12 9
-27z m-1713 -20 c-10 -10 -19 5 -10 18 6 11 8 11 12 0 2 -7 1 -15 -2 -18z
m544 11 c0 -8 -5 -12 -10 -9 -6 4 -8 11 -5 16 9 14 15 11 15 -7z m627 -6 c-3
-8 -6 -5 -6 6 -1 11 2 17 5 13 3 -3 4 -12 1 -19z m-1137 2 c0 -5 -4 -10 -10
-10 -5 0 -10 5 -10 10 0 6 5 10 10 10 6 0 10 -4 10 -10z m30 0 c0 -5 -2 -10
-4 -10 -3 0 -8 5 -11 10 -3 6 -1 10 4 10 6 0 11 -4 11 -10z m150 0 c0 -5 -4
-10 -10 -10 -5 0 -10 5 -10 10 0 6 5 10 10 10 6 0 10 -4 10 -10z m30 0 c0 -5
-4 -10 -10 -10 -5 0 -10 5 -10 10 0 6 5 10 10 10 6 0 10 -4 10 -10z m30 0 c0
-5 -4 -10 -10 -10 -5 0 -10 5 -10 10 0 6 5 10 10 10 6 0 10 -4 10 -10z m90 0
c0 -5 -4 -10 -10 -10 -5 0 -10 5 -10 10 0 6 5 10 10 10 6 0 10 -4 10 -10z m30
0 c0 -5 -4 -10 -10 -10 -5 0 -10 5 -10 10 0 6 5 10 10 10 6 0 10 -4 10 -10z
m30 0 c0 -5 -4 -10 -10 -10 -5 0 -10 5 -10 10 0 6 5 10 10 10 6 0 10 -4 10
-10z m30 0 c0 -5 -4 -10 -10 -10 -5 0 -10 5 -10 10 0 6 5 10 10 10 6 0 10 -4
10 -10z m120 0 c0 -5 -4 -10 -10 -10 -5 0 -10 5 -10 10 0 6 5 10 10 10 6 0 10
-4 10 -10z m30 0 c0 -5 -4 -10 -10 -10 -5 0 -10 5 -10 10 0 6 5 10 10 10 6 0
10 -4 10 -10z m30 0 c0 -5 -4 -10 -10 -10 -5 0 -10 5 -10 10 0 6 5 10 10 10 6
0 10 -4 10 -10z m630 0 c0 -5 -4 -10 -10 -10 -5 0 -10 5 -10 10 0 6 5 10 10
10 6 0 10 -4 10 -10z m60 0 c0 -5 -2 -10 -4 -10 -3 0 -8 5 -11 10 -3 6 -1 10
4 10 6 0 11 -4 11 -10z m180 2 c0 -4 -16 -7 -35 -8 -19 0 -35 3 -35 8 0 4 16
8 35 8 19 0 35 -3 35 -8z m390 0 c0 -10 -36 -9 -46 1 -4 4 5 7 19 7 15 0 27
-4 27 -8z m30 -2 c0 -5 -4 -10 -10 -10 -5 0 -10 5 -10 10 0 6 5 10 10 10 6 0
10 -4 10 -10z m150 0 c0 -5 -4 -10 -10 -10 -5 0 -10 5 -10 10 0 6 5 10 10 10
6 0 10 -4 10 -10z m-1341 -328 c16 -125 18 -118 -33 -118 -36 -1 -47 3 -57 22
-6 13 -16 21 -20 18 -4 -2 -10 0 -14 5 -3 5 3 14 12 20 10 6 12 11 6 11 -7 0
-13 6 -13 14 0 8 6 17 13 19 8 4 9 6 0 6 -6 1 -18 -6 -27 -14 -19 -19 -27 -19
-19 1 4 10 -1 17 -16 21 -19 5 -25 15 -22 36 0 4 -6 7 -14 7 -8 0 -15 4 -15
10 0 5 8 6 18 3 14 -6 15 -4 4 9 -11 14 -2 16 86 17 l99 2 12 -89z m61 78 c0
-5 -7 -10 -15 -10 -8 0 -15 5 -15 10 0 6 7 10 15 10 8 0 15 -4 15 -10z m425 0
c-3 -5 1 -10 10 -10 9 0 13 5 10 10 -3 6 1 10 9 10 12 0 15 -9 12 -42 -2 -24
-2 -35 1 -25 2 9 9 17 14 17 12 0 0 -73 -15 -82 -7 -5 -8 -13 -1 -25 11 -20 8
-86 -4 -79 -4 3 -6 -8 -3 -23 2 -15 -1 -47 -8 -70 -10 -38 -13 -41 -28 -29
-11 9 -14 10 -8 1 4 -7 2 -13 -4 -13 -6 0 -13 7 -16 15 -4 9 -19 15 -40 15
-19 0 -34 4 -34 8 0 5 -25 21 -55 36 -67 34 -82 50 -66 70 10 12 7 23 -15 58
-15 24 -31 44 -35 46 -5 2 -4 12 2 23 19 36 3 55 -56 68 -30 7 -55 17 -55 22
0 5 82 9 196 9 127 0 193 -3 189 -10z m-670 -88 c-3 -3 -11 0 -18 7 -9 10 -8
11 6 5 10 -3 15 -9 12 -12z m82 -104 c-3 -8 -6 -5 -6 6 -1 11 2 17 5 13 3 -3
4 -12 1 -19z m143 -48 c0 -5 -8 -10 -17 -10 -15 0 -16 2 -3 10 19 12 20 12 20
0z m324 -132 c-3 -4 12 -8 33 -8 37 0 39 -2 41 -34 2 -24 -3 -38 -15 -45 -10
-6 -15 -11 -10 -11 4 0 0 -11 -9 -25 -12 -19 -15 -37 -10 -73 7 -55 -14 -111
-45 -119 -11 -3 -19 -10 -19 -16 0 -6 -3 -8 -6 -4 -3 3 -16 2 -29 -3 -19 -7
-24 -4 -34 17 -6 14 -9 34 -6 44 5 15 3 17 -11 12 -12 -4 -15 -3 -10 6 5 7 -1
20 -13 30 l-21 19 27 7 c28 7 57 38 59 65 1 8 3 17 4 20 7 22 8 50 1 50 -18 0
-20 44 -3 60 17 17 86 24 76 8z m-94 -53 c0 -8 -2 -15 -4 -15 -2 0 -6 7 -10
15 -3 8 -1 15 4 15 6 0 10 -7 10 -15z m900 -745 c0 -5 -7 -7 -15 -4 -8 4 -12
10 -9 15 6 11 24 2 24 -11z m930 -210 c8 -5 11 -10 5 -10 -5 0 -17 5 -25 10
-8 5 -10 10 -5 10 6 0 17 -5 25 -10z m-110 -214 c0 -3 -4 -8 -10 -11 -5 -3
-10 -1 -10 4 0 6 5 11 10 11 6 0 10 -2 10 -4z m-393 -402 c-3 -3 -12 -4 -19
-1 -8 3 -5 6 6 6 11 1 17 -2 13 -5z m251 -59 c-3 -3 -9 2 -12 12 -6 14 -5 15
5 6 7 -7 10 -15 7 -18z"/>
<path d="M1723 2025 c0 -8 4 -12 9 -9 5 3 6 10 3 15 -9 13 -12 11 -12 -6z"/>
<path d="M2140 1990 c0 -5 12 -13 28 -16 15 -4 32 -11 38 -16 7 -5 16 -2 24 7
11 13 10 14 -5 9 -11 -5 -21 -1 -27 9 -10 18 -58 24 -58 7z"/>
<path d="M3250 27 c0 -11 -4 -15 -12 -11 -7 4 -8 3 -4 -4 5 -8 41 -12 103 -12
82 0 94 2 83 14 -6 8 -18 12 -26 9 -8 -3 -21 1 -30 8 -8 7 -37 13 -65 13 -41
1 -49 -2 -49 -17z"/>
<path d="M3440 10 c0 -5 12 -10 28 -9 24 0 25 1 7 9 -27 12 -35 12 -35 0z"/>
</g>
</svg>
